<svg width="33" height="32" viewBox="0 0 33 32" fill="none" xmlns="http://www.w3.org/2000/svg">
<path d="M25.7903 0H6.364C2.89297 0 0.0771484 2.81582 0.0771484 6.28686V25.7131C0.0771484 29.1842 2.89297 32 6.364 32H25.7903C29.2613 32 32.0771 29.1842 32.0771 25.7131V6.28686C32.0771 2.81582 29.2613 0 25.7903 0ZM2.99525 19.0587L14.4759 6.1654L6.59413 17.8729C10.0875 19.4966 13.7727 18.7263 13.7727 18.7263C8.48306 21.5166 2.99525 19.0555 2.99525 19.0555V19.0587ZM16.6429 27.6852H15.6201C12.0724 27.7139 7.68082 29.5038 7.68082 29.5038C11.8358 26.2245 15.6201 26.3907 15.6201 26.3907V3.14503C13.8462 3.16101 11.6505 3.79065 11.6505 3.79065C13.8462 2.58889 15.6201 2.4962 15.6201 2.4962H16.6429C16.6429 2.4962 18.4167 2.5857 20.6125 3.79065C20.6125 3.79065 18.4167 3.15781 16.6429 3.14503V26.3907C16.6429 26.3907 20.996 26.3524 24.5821 29.5038C24.5821 29.5038 20.1938 27.7139 16.6429 27.6852ZM18.3848 18.7295C18.3848 18.7295 22.07 19.4966 25.5634 17.8761L17.6784 6.1654L29.159 19.0587C29.159 19.0587 23.6712 21.5166 18.3816 18.7295H18.3848Z" fill="#00609C"/>
</svg>
