<svg width="126" height="266" viewBox="0 0 126 266" fill="none" xmlns="http://www.w3.org/2000/svg">
<path d="M6 3C6 4.65685 4.65685 6 3 6C1.34315 6 0 4.65685 0 3C0 1.34315 1.34315 0 3 0C4.65685 0 6 1.34315 6 3Z" fill="#00609C"/>
<path d="M26 3C26 4.65685 24.6569 6 23 6C21.3431 6 20 4.65685 20 3C20 1.34315 21.3431 0 23 0C24.6569 0 26 1.34315 26 3Z" fill="#00609C"/>
<path d="M46 3C46 4.65685 44.6569 6 43 6C41.3431 6 40 4.65685 40 3C40 1.34315 41.3431 0 43 0C44.6569 0 46 1.34315 46 3Z" fill="#00609C"/>
<path d="M66 3C66 4.65685 64.6569 6 63 6C61.3431 6 60 4.65685 60 3C60 1.34315 61.3431 0 63 0C64.6569 0 66 1.34315 66 3Z" fill="#00609C"/>
<path d="M86 3C86 4.65685 84.6569 6 83 6C81.3431 6 80 4.65685 80 3C80 1.34315 81.3431 0 83 0C84.6569 0 86 1.34315 86 3Z" fill="#00609C"/>
<path d="M106 3C106 4.65685 104.657 6 103 6C101.343 6 100 4.65685 100 3C100 1.34315 101.343 0 103 0C104.657 0 106 1.34315 106 3Z" fill="#00609C"/>
<path d="M126 3C126 4.65685 124.657 6 123 6C121.343 6 120 4.65685 120 3C120 1.34315 121.343 0 123 0C124.657 0 126 1.34315 126 3Z" fill="#00609C"/>
<path d="M6 23C6 24.6569 4.65685 26 3 26C1.34315 26 0 24.6569 0 23C0 21.3431 1.34315 20 3 20C4.65685 20 6 21.3431 6 23Z" fill="#00609C"/>
<path d="M26 23C26 24.6569 24.6569 26 23 26C21.3431 26 20 24.6569 20 23C20 21.3431 21.3431 20 23 20C24.6569 20 26 21.3431 26 23Z" fill="#00609C"/>
<path d="M46 23C46 24.6569 44.6569 26 43 26C41.3431 26 40 24.6569 40 23C40 21.3431 41.3431 20 43 20C44.6569 20 46 21.3431 46 23Z" fill="#00609C"/>
<path d="M66 23C66 24.6569 64.6569 26 63 26C61.3431 26 60 24.6569 60 23C60 21.3431 61.3431 20 63 20C64.6569 20 66 21.3431 66 23Z" fill="#00609C"/>
<path d="M86 23C86 24.6569 84.6569 26 83 26C81.3431 26 80 24.6569 80 23C80 21.3431 81.3431 20 83 20C84.6569 20 86 21.3431 86 23Z" fill="#00609C"/>
<path d="M106 23C106 24.6569 104.657 26 103 26C101.343 26 100 24.6569 100 23C100 21.3431 101.343 20 103 20C104.657 20 106 21.3431 106 23Z" fill="#00609C"/>
<path d="M126 23C126 24.6569 124.657 26 123 26C121.343 26 120 24.6569 120 23C120 21.3431 121.343 20 123 20C124.657 20 126 21.3431 126 23Z" fill="#00609C"/>
<path d="M6 43C6 44.6569 4.65685 46 3 46C1.34315 46 0 44.6569 0 43C0 41.3431 1.34315 40 3 40C4.65685 40 6 41.3431 6 43Z" fill="#00609C"/>
<path d="M26 43C26 44.6569 24.6569 46 23 46C21.3431 46 20 44.6569 20 43C20 41.3431 21.3431 40 23 40C24.6569 40 26 41.3431 26 43Z" fill="#00609C"/>
<path d="M46 43C46 44.6569 44.6569 46 43 46C41.3431 46 40 44.6569 40 43C40 41.3431 41.3431 40 43 40C44.6569 40 46 41.3431 46 43Z" fill="#00609C"/>
<path d="M66 43C66 44.6569 64.6569 46 63 46C61.3431 46 60 44.6569 60 43C60 41.3431 61.3431 40 63 40C64.6569 40 66 41.3431 66 43Z" fill="#00609C"/>
<path d="M86 43C86 44.6569 84.6569 46 83 46C81.3431 46 80 44.6569 80 43C80 41.3431 81.3431 40 83 40C84.6569 40 86 41.3431 86 43Z" fill="#00609C"/>
<path d="M106 43C106 44.6569 104.657 46 103 46C101.343 46 100 44.6569 100 43C100 41.3431 101.343 40 103 40C104.657 40 106 41.3431 106 43Z" fill="#00609C"/>
<path d="M126 43C126 44.6569 124.657 46 123 46C121.343 46 120 44.6569 120 43C120 41.3431 121.343 40 123 40C124.657 40 126 41.3431 126 43Z" fill="#00609C"/>
<path d="M6 63C6 64.6569 4.65685 66 3 66C1.34315 66 0 64.6569 0 63C0 61.3431 1.34315 60 3 60C4.65685 60 6 61.3431 6 63Z" fill="#00609C"/>
<path d="M26 63C26 64.6569 24.6569 66 23 66C21.3431 66 20 64.6569 20 63C20 61.3431 21.3431 60 23 60C24.6569 60 26 61.3431 26 63Z" fill="#00609C"/>
<path d="M46 63C46 64.6569 44.6569 66 43 66C41.3431 66 40 64.6569 40 63C40 61.3431 41.3431 60 43 60C44.6569 60 46 61.3431 46 63Z" fill="#00609C"/>
<path d="M66 63C66 64.6569 64.6569 66 63 66C61.3431 66 60 64.6569 60 63C60 61.3431 61.3431 60 63 60C64.6569 60 66 61.3431 66 63Z" fill="#00609C"/>
<path d="M86 63C86 64.6569 84.6569 66 83 66C81.3431 66 80 64.6569 80 63C80 61.3431 81.3431 60 83 60C84.6569 60 86 61.3431 86 63Z" fill="#00609C"/>
<path d="M106 63C106 64.6569 104.657 66 103 66C101.343 66 100 64.6569 100 63C100 61.3431 101.343 60 103 60C104.657 60 106 61.3431 106 63Z" fill="#00609C"/>
<path d="M126 63C126 64.6569 124.657 66 123 66C121.343 66 120 64.6569 120 63C120 61.3431 121.343 60 123 60C124.657 60 126 61.3431 126 63Z" fill="#00609C"/>
<path d="M6 83C6 84.6569 4.65685 86 3 86C1.34315 86 0 84.6569 0 83C0 81.3431 1.34315 80 3 80C4.65685 80 6 81.3431 6 83Z" fill="#00609C"/>
<path d="M26 83C26 84.6569 24.6569 86 23 86C21.3431 86 20 84.6569 20 83C20 81.3431 21.3431 80 23 80C24.6569 80 26 81.3431 26 83Z" fill="#00609C"/>
<path d="M46 83C46 84.6569 44.6569 86 43 86C41.3431 86 40 84.6569 40 83C40 81.3431 41.3431 80 43 80C44.6569 80 46 81.3431 46 83Z" fill="#00609C"/>
<path d="M66 83C66 84.6569 64.6569 86 63 86C61.3431 86 60 84.6569 60 83C60 81.3431 61.3431 80 63 80C64.6569 80 66 81.3431 66 83Z" fill="#00609C"/>
<path d="M86 83C86 84.6569 84.6569 86 83 86C81.3431 86 80 84.6569 80 83C80 81.3431 81.3431 80 83 80C84.6569 80 86 81.3431 86 83Z" fill="#00609C"/>
<path d="M106 83C106 84.6569 104.657 86 103 86C101.343 86 100 84.6569 100 83C100 81.3431 101.343 80 103 80C104.657 80 106 81.3431 106 83Z" fill="#00609C"/>
<path d="M126 83C126 84.6569 124.657 86 123 86C121.343 86 120 84.6569 120 83C120 81.3431 121.343 80 123 80C124.657 80 126 81.3431 126 83Z" fill="#00609C"/>
<path d="M6 103C6 104.657 4.65685 106 3 106C1.34315 106 0 104.657 0 103C0 101.343 1.34315 100 3 100C4.65685 100 6 101.343 6 103Z" fill="#00609C"/>
<path d="M26 103C26 104.657 24.6569 106 23 106C21.3431 106 20 104.657 20 103C20 101.343 21.3431 100 23 100C24.6569 100 26 101.343 26 103Z" fill="#00609C"/>
<path d="M46 103C46 104.657 44.6569 106 43 106C41.3431 106 40 104.657 40 103C40 101.343 41.3431 100 43 100C44.6569 100 46 101.343 46 103Z" fill="#00609C"/>
<path d="M66 103C66 104.657 64.6569 106 63 106C61.3431 106 60 104.657 60 103C60 101.343 61.3431 100 63 100C64.6569 100 66 101.343 66 103Z" fill="#00609C"/>
<path d="M86 103C86 104.657 84.6569 106 83 106C81.3431 106 80 104.657 80 103C80 101.343 81.3431 100 83 100C84.6569 100 86 101.343 86 103Z" fill="#00609C"/>
<path d="M106 103C106 104.657 104.657 106 103 106C101.343 106 100 104.657 100 103C100 101.343 101.343 100 103 100C104.657 100 106 101.343 106 103Z" fill="#00609C"/>
<path d="M126 103C126 104.657 124.657 106 123 106C121.343 106 120 104.657 120 103C120 101.343 121.343 100 123 100C124.657 100 126 101.343 126 103Z" fill="#00609C"/>
<path d="M6 123C6 124.657 4.65685 126 3 126C1.34315 126 0 124.657 0 123C0 121.343 1.34315 120 3 120C4.65685 120 6 121.343 6 123Z" fill="#00609C"/>
<path d="M26 123C26 124.657 24.6569 126 23 126C21.3431 126 20 124.657 20 123C20 121.343 21.3431 120 23 120C24.6569 120 26 121.343 26 123Z" fill="#00609C"/>
<path d="M46 123C46 124.657 44.6569 126 43 126C41.3431 126 40 124.657 40 123C40 121.343 41.3431 120 43 120C44.6569 120 46 121.343 46 123Z" fill="#00609C"/>
<path d="M66 123C66 124.657 64.6569 126 63 126C61.3431 126 60 124.657 60 123C60 121.343 61.3431 120 63 120C64.6569 120 66 121.343 66 123Z" fill="#00609C"/>
<path d="M86 123C86 124.657 84.6569 126 83 126C81.3431 126 80 124.657 80 123C80 121.343 81.3431 120 83 120C84.6569 120 86 121.343 86 123Z" fill="#00609C"/>
<path d="M106 123C106 124.657 104.657 126 103 126C101.343 126 100 124.657 100 123C100 121.343 101.343 120 103 120C104.657 120 106 121.343 106 123Z" fill="#00609C"/>
<path d="M126 123C126 124.657 124.657 126 123 126C121.343 126 120 124.657 120 123C120 121.343 121.343 120 123 120C124.657 120 126 121.343 126 123Z" fill="#00609C"/>
<path d="M6 143C6 144.657 4.65685 146 3 146C1.34315 146 0 144.657 0 143C0 141.343 1.34315 140 3 140C4.65685 140 6 141.343 6 143Z" fill="#00609C"/>
<path d="M26 143C26 144.657 24.6569 146 23 146C21.3431 146 20 144.657 20 143C20 141.343 21.3431 140 23 140C24.6569 140 26 141.343 26 143Z" fill="#00609C"/>
<path d="M46 143C46 144.657 44.6569 146 43 146C41.3431 146 40 144.657 40 143C40 141.343 41.3431 140 43 140C44.6569 140 46 141.343 46 143Z" fill="#00609C"/>
<path d="M66 143C66 144.657 64.6569 146 63 146C61.3431 146 60 144.657 60 143C60 141.343 61.3431 140 63 140C64.6569 140 66 141.343 66 143Z" fill="#00609C"/>
<path d="M86 143C86 144.657 84.6569 146 83 146C81.3431 146 80 144.657 80 143C80 141.343 81.3431 140 83 140C84.6569 140 86 141.343 86 143Z" fill="#00609C"/>
<path d="M106 143C106 144.657 104.657 146 103 146C101.343 146 100 144.657 100 143C100 141.343 101.343 140 103 140C104.657 140 106 141.343 106 143Z" fill="#00609C"/>
<path d="M126 143C126 144.657 124.657 146 123 146C121.343 146 120 144.657 120 143C120 141.343 121.343 140 123 140C124.657 140 126 141.343 126 143Z" fill="#00609C"/>
<path d="M6 163C6 164.657 4.65685 166 3 166C1.34315 166 0 164.657 0 163C0 161.343 1.34315 160 3 160C4.65685 160 6 161.343 6 163Z" fill="#00609C"/>
<path d="M26 163C26 164.657 24.6569 166 23 166C21.3431 166 20 164.657 20 163C20 161.343 21.3431 160 23 160C24.6569 160 26 161.343 26 163Z" fill="#00609C"/>
<path d="M46 163C46 164.657 44.6569 166 43 166C41.3431 166 40 164.657 40 163C40 161.343 41.3431 160 43 160C44.6569 160 46 161.343 46 163Z" fill="#00609C"/>
<path d="M66 163C66 164.657 64.6569 166 63 166C61.3431 166 60 164.657 60 163C60 161.343 61.3431 160 63 160C64.6569 160 66 161.343 66 163Z" fill="#00609C"/>
<path d="M86 163C86 164.657 84.6569 166 83 166C81.3431 166 80 164.657 80 163C80 161.343 81.3431 160 83 160C84.6569 160 86 161.343 86 163Z" fill="#00609C"/>
<path d="M106 163C106 164.657 104.657 166 103 166C101.343 166 100 164.657 100 163C100 161.343 101.343 160 103 160C104.657 160 106 161.343 106 163Z" fill="#00609C"/>
<path d="M126 163C126 164.657 124.657 166 123 166C121.343 166 120 164.657 120 163C120 161.343 121.343 160 123 160C124.657 160 126 161.343 126 163Z" fill="#00609C"/>
<path d="M6 183C6 184.657 4.65685 186 3 186C1.34315 186 0 184.657 0 183C0 181.343 1.34315 180 3 180C4.65685 180 6 181.343 6 183Z" fill="#00609C"/>
<path d="M26 183C26 184.657 24.6569 186 23 186C21.3431 186 20 184.657 20 183C20 181.343 21.3431 180 23 180C24.6569 180 26 181.343 26 183Z" fill="#00609C"/>
<path d="M46 183C46 184.657 44.6569 186 43 186C41.3431 186 40 184.657 40 183C40 181.343 41.3431 180 43 180C44.6569 180 46 181.343 46 183Z" fill="#00609C"/>
<path d="M66 183C66 184.657 64.6569 186 63 186C61.3431 186 60 184.657 60 183C60 181.343 61.3431 180 63 180C64.6569 180 66 181.343 66 183Z" fill="#00609C"/>
<path d="M86 183C86 184.657 84.6569 186 83 186C81.3431 186 80 184.657 80 183C80 181.343 81.3431 180 83 180C84.6569 180 86 181.343 86 183Z" fill="#00609C"/>
<path d="M106 183C106 184.657 104.657 186 103 186C101.343 186 100 184.657 100 183C100 181.343 101.343 180 103 180C104.657 180 106 181.343 106 183Z" fill="#00609C"/>
<path d="M126 183C126 184.657 124.657 186 123 186C121.343 186 120 184.657 120 183C120 181.343 121.343 180 123 180C124.657 180 126 181.343 126 183Z" fill="#00609C"/>
<path d="M6 203C6 204.657 4.65685 206 3 206C1.34315 206 0 204.657 0 203C0 201.343 1.34315 200 3 200C4.65685 200 6 201.343 6 203Z" fill="#00609C"/>
<path d="M26 203C26 204.657 24.6569 206 23 206C21.3431 206 20 204.657 20 203C20 201.343 21.3431 200 23 200C24.6569 200 26 201.343 26 203Z" fill="#00609C"/>
<path d="M46 203C46 204.657 44.6569 206 43 206C41.3431 206 40 204.657 40 203C40 201.343 41.3431 200 43 200C44.6569 200 46 201.343 46 203Z" fill="#00609C"/>
<path d="M66 203C66 204.657 64.6569 206 63 206C61.3431 206 60 204.657 60 203C60 201.343 61.3431 200 63 200C64.6569 200 66 201.343 66 203Z" fill="#00609C"/>
<path d="M86 203C86 204.657 84.6569 206 83 206C81.3431 206 80 204.657 80 203C80 201.343 81.3431 200 83 200C84.6569 200 86 201.343 86 203Z" fill="#00609C"/>
<path d="M106 203C106 204.657 104.657 206 103 206C101.343 206 100 204.657 100 203C100 201.343 101.343 200 103 200C104.657 200 106 201.343 106 203Z" fill="#00609C"/>
<path d="M126 203C126 204.657 124.657 206 123 206C121.343 206 120 204.657 120 203C120 201.343 121.343 200 123 200C124.657 200 126 201.343 126 203Z" fill="#00609C"/>
<path d="M6 223C6 224.657 4.65685 226 3 226C1.34315 226 0 224.657 0 223C0 221.343 1.34315 220 3 220C4.65685 220 6 221.343 6 223Z" fill="#00609C"/>
<path d="M26 223C26 224.657 24.6569 226 23 226C21.3431 226 20 224.657 20 223C20 221.343 21.3431 220 23 220C24.6569 220 26 221.343 26 223Z" fill="#00609C"/>
<path d="M46 223C46 224.657 44.6569 226 43 226C41.3431 226 40 224.657 40 223C40 221.343 41.3431 220 43 220C44.6569 220 46 221.343 46 223Z" fill="#00609C"/>
<path d="M66 223C66 224.657 64.6569 226 63 226C61.3431 226 60 224.657 60 223C60 221.343 61.3431 220 63 220C64.6569 220 66 221.343 66 223Z" fill="#00609C"/>
<path d="M86 223C86 224.657 84.6569 226 83 226C81.3431 226 80 224.657 80 223C80 221.343 81.3431 220 83 220C84.6569 220 86 221.343 86 223Z" fill="#00609C"/>
<path d="M106 223C106 224.657 104.657 226 103 226C101.343 226 100 224.657 100 223C100 221.343 101.343 220 103 220C104.657 220 106 221.343 106 223Z" fill="#00609C"/>
<path d="M126 223C126 224.657 124.657 226 123 226C121.343 226 120 224.657 120 223C120 221.343 121.343 220 123 220C124.657 220 126 221.343 126 223Z" fill="#00609C"/>
<path d="M6 243C6 244.657 4.65685 246 3 246C1.34315 246 0 244.657 0 243C0 241.343 1.34315 240 3 240C4.65685 240 6 241.343 6 243Z" fill="#00609C"/>
<path d="M26 243C26 244.657 24.6569 246 23 246C21.3431 246 20 244.657 20 243C20 241.343 21.3431 240 23 240C24.6569 240 26 241.343 26 243Z" fill="#00609C"/>
<path d="M46 243C46 244.657 44.6569 246 43 246C41.3431 246 40 244.657 40 243C40 241.343 41.3431 240 43 240C44.6569 240 46 241.343 46 243Z" fill="#00609C"/>
<path d="M66 243C66 244.657 64.6569 246 63 246C61.3431 246 60 244.657 60 243C60 241.343 61.3431 240 63 240C64.6569 240 66 241.343 66 243Z" fill="#00609C"/>
<path d="M86 243C86 244.657 84.6569 246 83 246C81.3431 246 80 244.657 80 243C80 241.343 81.3431 240 83 240C84.6569 240 86 241.343 86 243Z" fill="#00609C"/>
<path d="M106 243C106 244.657 104.657 246 103 246C101.343 246 100 244.657 100 243C100 241.343 101.343 240 103 240C104.657 240 106 241.343 106 243Z" fill="#00609C"/>
<path d="M126 243C126 244.657 124.657 246 123 246C121.343 246 120 244.657 120 243C120 241.343 121.343 240 123 240C124.657 240 126 241.343 126 243Z" fill="#00609C"/>
<path d="M6 263C6 264.657 4.65685 266 3 266C1.34315 266 0 264.657 0 263C0 261.343 1.34315 260 3 260C4.65685 260 6 261.343 6 263Z" fill="#00609C"/>
<path d="M26 263C26 264.657 24.6569 266 23 266C21.3431 266 20 264.657 20 263C20 261.343 21.3431 260 23 260C24.6569 260 26 261.343 26 263Z" fill="#00609C"/>
<path d="M46 263C46 264.657 44.6569 266 43 266C41.3431 266 40 264.657 40 263C40 261.343 41.3431 260 43 260C44.6569 260 46 261.343 46 263Z" fill="#00609C"/>
<path d="M66 263C66 264.657 64.6569 266 63 266C61.3431 266 60 264.657 60 263C60 261.343 61.3431 260 63 260C64.6569 260 66 261.343 66 263Z" fill="#00609C"/>
<path d="M86 263C86 264.657 84.6569 266 83 266C81.3431 266 80 264.657 80 263C80 261.343 81.3431 260 83 260C84.6569 260 86 261.343 86 263Z" fill="#00609C"/>
<path d="M106 263C106 264.657 104.657 266 103 266C101.343 266 100 264.657 100 263C100 261.343 101.343 260 103 260C104.657 260 106 261.343 106 263Z" fill="#00609C"/>
<path d="M126 263C126 264.657 124.657 266 123 266C121.343 266 120 264.657 120 263C120 261.343 121.343 260 123 260C124.657 260 126 261.343 126 263Z" fill="#00609C"/>
</svg>
